<mxfile host="app.diagrams.net" modified="2020-12-10T05:29:40.299Z" agent="5.0 (Windows NT 10.0; Win64; x64) AppleWebKit/537.36 (KHTML, like Gecko) Chrome/86.0.4240.198 Safari/537.36" etag="ZfsBL4Yo3XBoSAZ6y_pH" version="13.11.0" type="github">
  <diagram id="Mj7dho6MNc0hiOWBvYqV" name="Page-1">
    <mxGraphModel dx="677" dy="363" grid="1" gridSize="10" guides="1" tooltips="1" connect="1" arrows="1" fold="1" page="1" pageScale="1" pageWidth="827" pageHeight="1169" math="0" shadow="0">
      <root>
        <mxCell id="0" />
        <mxCell id="1" parent="0" />
        <mxCell id="uFIf6QSWMpYLpyPhZE5v-20" value="&lt;font color=&quot;#ffffff&quot; style=&quot;font-size: 17px&quot;&gt;需求规格说明&lt;/font&gt;" style="rounded=1;whiteSpace=wrap;html=1;gradientColor=#277116;fillColor=#60A337;fontSize=17;strokeColor=none;fontStyle=1" vertex="1" parent="1">
          <mxGeometry x="240" y="160" width="160" height="40" as="geometry" />
        </mxCell>
        <mxCell id="uFIf6QSWMpYLpyPhZE5v-21" value="&lt;font color=&quot;#ffffff&quot; style=&quot;font-size: 17px&quot;&gt;软件研制任务书&lt;/font&gt;" style="rounded=1;whiteSpace=wrap;html=1;gradientColor=#277116;fillColor=#60A337;fontSize=17;strokeColor=none;fontStyle=1" vertex="1" parent="1">
          <mxGeometry x="240" y="240" width="160" height="40" as="geometry" />
        </mxCell>
      </root>
    </mxGraphModel>
  </diagram>
</mxfile>
